<svg width="50" height="50" viewBox="0 0 50 50" fill="none" xmlns="http://www.w3.org/2000/svg">
<g clip-path="url(#clip0_31_437)">
<path d="M17.6339 35.7143H32.3661C32.6116 35.7143 32.8125 35.5134 32.8125 35.2678V30.5803C32.8125 30.3348 32.6116 30.1339 32.3661 30.1339H30.1339C29.8884 30.1339 29.6875 30.3348 29.6875 30.5803V32.5893H20.3125V30.5803C20.3125 30.3348 20.1116 30.1339 19.8661 30.1339H17.6339C17.3884 30.1339 17.1875 30.3348 17.1875 30.5803V35.2678C17.1875 35.5134 17.3884 35.7143 17.6339 35.7143ZM36.6071 28.8504C36.6071 29.4424 36.8423 30.0102 37.2609 30.4288C37.6795 30.8474 38.2473 31.0826 38.8393 31.0826C39.4313 31.0826 39.999 30.8474 40.4176 30.4288C40.8363 30.0102 41.0714 29.4424 41.0714 28.8504C41.0714 28.2584 40.8363 27.6907 40.4176 27.272C39.999 26.8534 39.4313 26.6183 38.8393 26.6183C38.2473 26.6183 37.6795 26.8534 37.2609 27.272C36.8423 27.6907 36.6071 28.2584 36.6071 28.8504ZM49.9442 19.4977L48.6217 17.1875C48.5622 17.0856 48.4649 17.0114 48.3509 16.9811C48.2369 16.9508 48.1156 16.9668 48.0134 17.0256L45.1842 18.6774L40.8147 6.61269C40.584 5.89279 40.1305 5.26483 39.5197 4.81948C38.9088 4.37414 38.1723 4.13444 37.4163 4.13501H13.2366C11.3002 4.13501 9.58147 5.38501 8.98437 7.23211L4.82143 18.683L1.9866 17.0312C1.8844 16.9724 1.76307 16.9564 1.6491 16.9867C1.53514 17.017 1.4378 17.0912 1.37834 17.193L0.0558002 19.4977C-0.0669676 19.7098 0.00557711 19.9776 0.217631 20.1004L3.58817 22.0647L2.77901 24.2968C2.71205 24.4754 2.67857 24.6651 2.67857 24.8549V44.2857C2.67857 45.1618 3.33705 45.8705 4.1462 45.8705H7.91852C8.60491 45.8705 9.20201 45.3515 9.3471 44.6261L9.77678 42.5223H40.2232L40.6529 44.6261C40.8036 45.3515 41.3951 45.8705 42.0815 45.8705H45.8538C46.6629 45.8705 47.3214 45.1618 47.3214 44.2857V24.8549C47.3214 24.6651 47.2879 24.4754 47.221 24.2968L46.4118 22.0647L49.7768 20.1004C49.8781 20.0419 49.9524 19.946 49.9837 19.8333C50.015 19.7206 50.0008 19.6001 49.9442 19.4977ZM43.3036 25.279V38.5044H6.69643V25.279L7.56696 22.8794H42.433L43.3036 25.279ZM12.7623 8.5993L12.7902 8.52675L12.8125 8.45421C12.8739 8.27005 13.0413 8.14729 13.2366 8.14729H37.0982L41.3058 19.7544H8.70535L12.7623 8.5993ZM8.92857 28.8504C8.92857 29.4424 9.16374 30.0102 9.58235 30.4288C10.001 30.8474 10.5687 31.0826 11.1607 31.0826C11.7527 31.0826 12.3205 30.8474 12.7391 30.4288C13.1577 30.0102 13.3929 29.4424 13.3929 28.8504C13.3929 28.2584 13.1577 27.6907 12.7391 27.272C12.3205 26.8534 11.7527 26.6183 11.1607 26.6183C10.5687 26.6183 10.001 26.8534 9.58235 27.272C9.16374 27.6907 8.92857 28.2584 8.92857 28.8504Z" fill="white"/>
</g>
<defs>
<clipPath id="clip0_31_437">
<rect width="50" height="50" fill="white"/>
</clipPath>
</defs>
</svg>
