<svg width="50" height="50" viewBox="0 0 50 50" fill="none" xmlns="http://www.w3.org/2000/svg">
<g clip-path="url(#clip0_31_457)">
<path d="M35.4353 16.1272H32.8181C32.2489 16.1272 31.7076 16.4006 31.3728 16.8694L22.6005 29.0346L18.6272 23.5212C18.2924 23.058 17.7567 22.779 17.1819 22.779H14.5648C14.202 22.779 13.99 23.1919 14.202 23.4877L21.1552 33.1305C21.3194 33.3598 21.5359 33.5466 21.7868 33.6755C22.0377 33.8044 22.3156 33.8716 22.5977 33.8716C22.8797 33.8716 23.1577 33.8044 23.4085 33.6755C23.6594 33.5466 23.8759 33.3598 24.0402 33.1305L35.7924 16.8359C36.0101 16.5401 35.798 16.1272 35.4353 16.1272Z" fill="white"/>
<path d="M25 0C11.1942 0 0 11.1942 0 25C0 38.8058 11.1942 50 25 50C38.8058 50 50 38.8058 50 25C50 11.1942 38.8058 0 25 0ZM25 45.7589C13.5379 45.7589 4.24107 36.4621 4.24107 25C4.24107 13.5379 13.5379 4.24107 25 4.24107C36.4621 4.24107 45.7589 13.5379 45.7589 25C45.7589 36.4621 36.4621 45.7589 25 45.7589Z" fill="white"/>
</g>
<defs>
<clipPath id="clip0_31_457">
<rect width="50" height="50" fill="white"/>
</clipPath>
</defs>
</svg>
