<svg width="50" height="50" viewBox="0 0 50 50" fill="none" xmlns="http://www.w3.org/2000/svg">
<g clip-path="url(#clip0_31_462)">
<path d="M29.5926 29.9945C30.641 28.8421 31.2202 27.3392 31.2165 25.7813C31.2165 22.327 28.4319 19.5313 25 19.5313C21.5681 19.5313 18.7835 22.327 18.7835 25.7813C18.7835 27.4052 19.3973 28.8784 20.4074 29.9945C19.1971 30.7444 18.1864 31.7761 17.4615 33.0015C16.7366 34.2269 16.319 35.6095 16.2444 37.0313C16.2414 37.0918 16.2507 37.1522 16.2718 37.209C16.2929 37.2658 16.3253 37.3176 16.367 37.3615C16.4088 37.4053 16.459 37.4402 16.5147 37.4641C16.5704 37.4879 16.6303 37.5001 16.6908 37.5H19.1406C19.375 37.5 19.5647 37.3159 19.5815 37.0815C19.7935 34.2578 22.1484 32.0313 25.0056 32.0313C27.8627 32.0313 30.2176 34.2634 30.4297 37.0815C30.4464 37.3159 30.6362 37.5 30.8705 37.5H33.3147C33.3753 37.5001 33.4352 37.4879 33.4909 37.4641C33.5466 37.4402 33.5968 37.4053 33.6386 37.3615C33.6803 37.3176 33.7127 37.2658 33.7338 37.209C33.7549 37.1522 33.7642 37.0918 33.7612 37.0313C33.6049 34.057 31.9754 31.4677 29.5926 29.9945ZM25 28.6831C23.4096 28.6831 22.115 27.3828 22.115 25.7813C22.115 24.1797 23.4096 22.8795 25 22.8795C26.5904 22.8795 27.885 24.1797 27.885 25.7813C27.885 27.3828 26.5904 28.6831 25 28.6831ZM48.2143 8.92861H39.2857V5.80361C39.2857 5.55807 39.0848 5.35718 38.8393 5.35718H35.7143C35.4688 5.35718 35.2679 5.55807 35.2679 5.80361V8.92861H27.0089V5.80361C27.0089 5.55807 26.808 5.35718 26.5625 5.35718H23.4375C23.192 5.35718 22.9911 5.55807 22.9911 5.80361V8.92861H14.7321V5.80361C14.7321 5.55807 14.5312 5.35718 14.2857 5.35718H11.1607C10.9152 5.35718 10.7143 5.55807 10.7143 5.80361V8.92861H1.78571C0.797991 8.92861 0 9.7266 0 10.7143V42.8572C0 43.8449 0.797991 44.6429 1.78571 44.6429H48.2143C49.202 44.6429 50 43.8449 50 42.8572V10.7143C50 9.7266 49.202 8.92861 48.2143 8.92861ZM45.9821 40.625H4.01786V12.9465H10.7143V16.0715C10.7143 16.317 10.9152 16.5179 11.1607 16.5179H14.2857C14.5312 16.5179 14.7321 16.317 14.7321 16.0715V12.9465H22.9911V16.0715C22.9911 16.317 23.192 16.5179 23.4375 16.5179H26.5625C26.808 16.5179 27.0089 16.317 27.0089 16.0715V12.9465H35.2679V16.0715C35.2679 16.317 35.4688 16.5179 35.7143 16.5179H38.8393C39.0848 16.5179 39.2857 16.317 39.2857 16.0715V12.9465H45.9821V40.625Z" fill="white"/>
</g>
<defs>
<clipPath id="clip0_31_462">
<rect width="50" height="50" fill="white"/>
</clipPath>
</defs>
</svg>
