<svg width="23" height="23" viewBox="0 0 23 23" fill="none" xmlns="http://www.w3.org/2000/svg">
<path fill-rule="evenodd" clip-rule="evenodd" d="M16.375 14.5H15.3875L15.0375 14.1625C16.5375 12.4125 17.3125 10.025 16.8875 7.48749C16.3 4.01249 13.4001 1.23749 9.90005 0.812489C4.61255 0.162489 0.16255 4.61249 0.81255 9.89999C1.23755 13.4 4.01255 16.3 7.48755 16.8875C10.025 17.3125 12.4125 16.5375 14.1625 15.0375L14.5 15.3875V16.375L19.8125 21.6875C20.3251 22.2 21.1625 22.2 21.675 21.6875C22.1875 21.175 22.1875 20.3375 21.675 19.825L16.375 14.5ZM8.87505 14.5C5.76255 14.5 3.25005 11.9875 3.25005 8.87499C3.25005 5.76249 5.76255 3.24999 8.87505 3.24999C11.9875 3.24999 14.5 5.76249 14.5 8.87499C14.5 11.9875 11.9875 14.5 8.87505 14.5Z" fill="white"/>
</svg>
