<svg width="23" height="23" viewBox="0 0 23 23" fill="none" xmlns="http://www.w3.org/2000/svg">
<path fill-rule="evenodd" clip-rule="evenodd" d="M16.3748 14.5H15.3873L15.0373 14.1625C16.5373 12.4125 17.3123 10.025 16.8873 7.48749C16.2998 4.01249 13.3998 1.23749 9.89981 0.812489C4.61231 0.162489 0.162305 4.61249 0.812305 9.89999C1.23731 13.4 4.01231 16.3 7.48731 16.8875C10.0248 17.3125 12.4123 16.5375 14.1623 15.0375L14.4998 15.3875V16.375L19.8123 21.6875C20.3248 22.2 21.1623 22.2 21.6748 21.6875C22.1873 21.175 22.1873 20.3375 21.6748 19.825L16.3748 14.5ZM8.87481 14.5C5.76231 14.5 3.24981 11.9875 3.24981 8.87499C3.24981 5.76249 5.76231 3.24999 8.87481 3.24999C11.9873 3.24999 14.4998 5.76249 14.4998 8.87499C14.4998 11.9875 11.9873 14.5 8.87481 14.5Z" fill="white"/>
</svg>
