<svg width="50" height="50" viewBox="0 0 50 50" fill="none" xmlns="http://www.w3.org/2000/svg">
<path d="M45.865 26.211C46.8025 24.9722 47.3214 23.4544 47.3214 21.8751C47.3214 19.3695 45.9208 16.9979 43.6663 15.6753C43.0859 15.3349 42.4251 15.1557 41.7523 15.1564H28.3706L28.7054 8.2981C28.7835 6.64074 28.1976 5.06708 27.0592 3.8673C26.5005 3.27594 25.8265 2.80543 25.0788 2.48485C24.3311 2.16427 23.5256 2.00043 22.7121 2.00346C19.8103 2.00346 17.2433 3.95658 16.4732 6.75234L11.6797 24.1073H4.4643C3.47658 24.1073 2.67859 24.9052 2.67859 25.893V46.2055C2.67859 47.1932 3.47658 47.9912 4.4643 47.9912H38.019C38.5324 47.9912 39.0346 47.8907 39.4978 47.6898C42.154 46.557 43.8672 43.9622 43.8672 41.0827C43.8672 40.3796 43.7668 39.6876 43.5659 39.018C44.5034 37.7791 45.0223 36.2613 45.0223 34.682C45.0223 33.9789 44.9219 33.2869 44.721 32.6173C45.6585 31.3785 46.1775 29.8606 46.1775 28.2814C46.1663 27.5782 46.0659 26.8807 45.865 26.211ZM6.69645 43.9733V28.1251H11.2165V43.9733H6.69645ZM42.2098 24.2747L40.9877 25.3349L41.7634 26.7523C42.019 27.2193 42.1515 27.7435 42.1485 28.2758C42.1485 29.1965 41.7467 30.0727 41.0547 30.6753L39.8326 31.7356L40.6083 33.153C40.8638 33.6199 40.9963 34.1442 40.9933 34.6764C40.9933 35.5972 40.5915 36.4733 39.8996 37.076L38.6775 38.1363L39.4531 39.5537C39.7087 40.0206 39.8412 40.5449 39.8382 41.0771C39.8382 42.3271 39.1016 43.4543 37.9632 43.9677H14.788V27.9465L20.3404 7.82935C20.4836 7.31373 20.7909 6.85883 21.2159 6.53357C21.6408 6.20832 22.1602 6.03044 22.6953 6.0269C23.1194 6.0269 23.538 6.14966 23.8728 6.40078C24.4252 6.81373 24.721 7.43873 24.6875 8.10279L24.1518 19.1742H41.6964C42.6898 19.7825 43.3036 20.8093 43.3036 21.8751C43.3036 22.7959 42.9018 23.6664 42.2098 24.2747Z" fill="white"/>
</svg>
