<svg width="29" height="29" viewBox="0 0 29 29" fill="none" xmlns="http://www.w3.org/2000/svg">
<rect x="0.5" y="0.870117" width="27.5257" height="27.0213" rx="13.5107" stroke="white"/>
<path d="M19.4455 11.7496C19.4455 11.868 19.4455 11.9865 19.4455 12.088C19.4455 15.5907 16.8185 19.6348 12.03 19.6348C10.5502 19.6348 9.18682 19.1949 8.02295 18.4504C8.22247 18.4673 8.43862 18.4842 8.63814 18.4842C9.85189 18.4842 10.9825 18.0612 11.8804 17.3505C10.7331 17.3336 9.76876 16.5552 9.45285 15.5061C9.61912 15.5399 9.76876 15.5568 9.95166 15.5568C10.1844 15.5568 10.4172 15.523 10.6334 15.4553C9.43623 15.2184 8.53838 14.1524 8.53838 12.8664C8.53838 12.8495 8.53838 12.8495 8.53838 12.8326C8.88754 13.0356 9.28658 13.1541 9.71888 13.171C9.02056 12.6972 8.55501 11.885 8.55501 10.9543C8.55501 10.4636 8.68802 10.0067 8.90417 9.61754C10.1844 11.225 12.1131 12.2742 14.2746 12.3926C14.2247 12.2065 14.2081 11.9865 14.2081 11.7834C14.2081 10.3113 15.372 9.12683 16.8185 9.12683C17.5667 9.12683 18.2484 9.44833 18.714 9.95596C19.3125 9.83752 19.8612 9.61754 20.3766 9.31296C20.1771 9.93904 19.7615 10.4467 19.2294 10.7851C19.7615 10.7174 20.2603 10.582 20.7258 10.3621C20.3933 10.9035 19.961 11.3773 19.4455 11.7496Z" fill="white"/>
</svg>
