<svg width="29" height="29" viewBox="0 0 29 29" fill="none" xmlns="http://www.w3.org/2000/svg">
<rect x="0.5" y="0.870117" width="27.5257" height="27.0213" rx="13.5107" stroke="white"/>
<path d="M19.9227 19.6308C19.2392 19.6149 18.5719 19.6149 17.8883 19.6308C17.7419 19.6308 17.7093 19.5989 17.7093 19.455C17.7093 18.2719 17.7093 17.0729 17.7093 15.8898C17.7093 15.6181 17.693 15.3463 17.6117 15.0905C17.3675 14.2592 16.391 13.9554 15.6912 14.515C15.3169 14.8027 15.1704 15.2024 15.1704 15.682C15.1704 16.8011 15.1704 17.9202 15.1704 19.0393C15.1704 19.1832 15.1541 19.3271 15.1704 19.487C15.1867 19.6149 15.1216 19.6468 15.0077 19.6308C14.3078 19.6308 13.6243 19.6308 12.9245 19.6308C12.7943 19.6308 12.7617 19.5989 12.7617 19.471C12.778 18.4638 12.778 17.4566 12.778 16.4334C12.778 15.1864 12.778 13.9394 12.7617 12.7084C12.7617 12.5645 12.7943 12.5325 12.9245 12.5325C13.6243 12.5325 14.3078 12.5325 15.0077 12.5325C15.1379 12.5325 15.1704 12.5645 15.1704 12.6924C15.1704 12.9482 15.1704 13.204 15.1704 13.5078C15.2192 13.4598 15.2355 13.4438 15.2518 13.4278C15.8865 12.5166 16.7816 12.2608 17.8395 12.4206C19.0601 12.6125 19.8413 13.4438 20.0366 14.7228C20.0855 15.0265 20.1017 15.3303 20.1017 15.6341C20.1017 16.913 20.1017 18.176 20.1017 19.455C20.1017 19.5829 20.0692 19.6308 19.9227 19.6308Z" fill="white"/>
<path d="M11.4593 16.082C11.4593 17.2011 11.4593 18.3202 11.4593 19.4393C11.4593 19.5832 11.4268 19.6312 11.2803 19.6312C10.5967 19.6152 9.91319 19.6312 9.22964 19.6312C9.09944 19.6312 9.06689 19.5992 9.06689 19.4713C9.06689 17.2171 9.06689 14.9469 9.06689 12.6927C9.06689 12.5808 9.09944 12.5328 9.22964 12.5328C9.92947 12.5328 10.6293 12.5328 11.3291 12.5328C11.4756 12.5328 11.4919 12.5808 11.4919 12.7087C11.4593 13.8278 11.4593 14.9469 11.4593 16.082Z" fill="white"/>
<path d="M11.5749 10.6782C11.4122 11.3177 10.7449 11.6854 9.97995 11.5575C9.16621 11.4296 8.71051 10.6462 9.00346 9.87886C9.19876 9.39925 9.67073 9.11148 10.2729 9.12746C11.1843 9.11148 11.7865 9.8309 11.5749 10.6782Z" fill="white"/>
</svg>
