<svg width="24" height="26" viewBox="0 0 24 26" fill="none" xmlns="http://www.w3.org/2000/svg">
<rect x="0.5" y="1.17188" width="23" height="24.2404" rx="11.5" stroke="white"/>
<path d="M16.7619 18.0211C16.1868 18.0067 15.6254 18.0067 15.0503 18.0211C14.9271 18.0211 14.8997 17.9923 14.8997 17.8627C14.8997 16.797 14.8997 15.717 14.8997 14.6514C14.8997 14.4066 14.886 14.1617 14.8175 13.9313C14.6121 13.1825 13.7906 12.9089 13.2018 13.4129C12.8868 13.6721 12.7636 14.0321 12.7636 14.4642C12.7636 15.4722 12.7636 16.4802 12.7636 17.4883C12.7636 17.6179 12.7499 17.7475 12.7636 17.8915C12.7773 18.0067 12.7225 18.0355 12.6267 18.0211C12.0379 18.0211 11.4628 18.0211 10.874 18.0211C10.7644 18.0211 10.7371 17.9923 10.7371 17.8771C10.7508 16.9698 10.7508 16.0626 10.7508 15.141C10.7508 14.0177 10.7508 12.8945 10.7371 11.7857C10.7371 11.6561 10.7644 11.6273 10.874 11.6273C11.4628 11.6273 12.0379 11.6273 12.6267 11.6273C12.7362 11.6273 12.7636 11.6561 12.7636 11.7713C12.7636 12.0017 12.7636 12.2321 12.7636 12.5057C12.8047 12.4625 12.8184 12.4481 12.8321 12.4337C13.3661 11.6129 14.1192 11.3824 15.0092 11.5264C16.0362 11.6993 16.6935 12.4481 16.8578 13.6001C16.8989 13.8737 16.9125 14.1473 16.9125 14.421C16.9125 15.573 16.9125 16.7106 16.9125 17.8627C16.9125 17.9779 16.8852 18.0211 16.7619 18.0211Z" fill="white"/>
<path d="M9.64127 14.8244C9.64127 15.8325 9.64127 16.8405 9.64127 17.8485C9.64127 17.9782 9.61389 18.0214 9.49065 18.0214C8.91555 18.007 8.34045 18.0214 7.76535 18.0214C7.6558 18.0214 7.62842 17.9926 7.62842 17.8773C7.62842 15.8469 7.62842 13.802 7.62842 11.7715C7.62842 11.6707 7.6558 11.6275 7.76535 11.6275C8.35414 11.6275 8.94293 11.6275 9.53173 11.6275C9.65496 11.6275 9.66866 11.6707 9.66866 11.7859C9.64127 12.7939 9.64127 13.802 9.64127 14.8244Z" fill="white"/>
<path d="M9.73848 9.95694C9.60155 10.533 9.04014 10.8642 8.39658 10.749C7.71193 10.6338 7.32853 9.92813 7.57501 9.23691C7.73932 8.80489 8.13641 8.54568 8.64305 8.56008C9.40985 8.54568 9.91649 9.19371 9.73848 9.95694Z" fill="white"/>
</svg>
