<svg width="24" height="26" viewBox="0 0 24 26" fill="none" xmlns="http://www.w3.org/2000/svg">
<rect x="0.5" y="1.17188" width="23" height="24.2404" rx="11.5" stroke="white"/>
<path d="M16.3604 10.922C16.3604 11.0287 16.3604 11.1354 16.3604 11.2268C16.3604 14.3819 14.1501 18.0247 10.1213 18.0247C8.87631 18.0247 7.72922 17.6284 6.75 16.9577C6.91787 16.973 7.09972 16.9882 7.26759 16.9882C8.28878 16.9882 9.24002 16.6072 9.99542 15.967C9.03019 15.9518 8.21883 15.2506 7.95304 14.3057C8.09293 14.3361 8.21883 14.3514 8.37271 14.3514C8.56855 14.3514 8.7644 14.3209 8.94625 14.2599C7.93905 14.0465 7.18366 13.0863 7.18366 11.9279C7.18366 11.9127 7.18366 11.9127 7.18366 11.8975C7.47742 12.0804 7.81315 12.1871 8.17687 12.2023C7.58933 11.7755 7.19764 11.0439 7.19764 10.2056C7.19764 9.76361 7.30955 9.35208 7.49141 9.00152C8.56855 10.4495 10.1913 11.3945 12.0098 11.5012C11.9678 11.3335 11.9539 11.1354 11.9539 10.9525C11.9539 9.62643 12.9331 8.55951 14.1501 8.55951C14.7796 8.55951 15.3532 8.8491 15.7448 9.30636C16.2484 9.19966 16.7101 9.00152 17.1437 8.72717C16.9759 9.29111 16.6261 9.74837 16.1785 10.0532C16.6261 9.99224 17.0458 9.8703 17.4375 9.67216C17.1577 10.1599 16.794 10.5867 16.3604 10.922Z" fill="white"/>
</svg>
