<svg width="14" height="14" viewBox="0 0 14 14" fill="none" xmlns="http://www.w3.org/2000/svg">
<path fill-rule="evenodd" clip-rule="evenodd" d="M0.4375 2.65844C0.4375 1.55388 1.33293 0.658447 2.4375 0.658447H11.5625C12.6671 0.658447 13.5625 1.55388 13.5625 2.65845V11.5514C13.5625 12.6559 12.6671 13.5514 11.5625 13.5514H2.4375C1.33293 13.5514 0.4375 12.6559 0.4375 11.5514V2.65844ZM7.00006 4.69657C5.62992 4.69657 4.53756 5.78487 4.53756 7.10492C4.53756 8.42496 5.62992 9.51327 7.00006 9.51327C8.3702 9.51327 9.46256 8.42496 9.46256 7.10492C9.46256 5.78487 8.3702 4.69657 7.00006 4.69657ZM3.33756 7.10492C3.33756 5.10203 4.98745 3.49657 7.00006 3.49657C9.01267 3.49657 10.6626 5.10203 10.6626 7.10492C10.6626 9.1078 9.01267 10.7133 7.00006 10.7133C4.98745 10.7133 3.33756 9.1078 3.33756 7.10492ZM10.9374 4.09656C11.4207 4.09656 11.8124 3.71174 11.8124 3.23703C11.8124 2.76233 11.4207 2.37751 10.9374 2.37751C10.4542 2.37751 10.0624 2.76233 10.0624 3.23703C10.0624 3.71174 10.4542 4.09656 10.9374 4.09656Z" fill="white"/>
</svg>
