<svg width="12" height="12" viewBox="0 0 12 12" fill="none" xmlns="http://www.w3.org/2000/svg">
<path fill-rule="evenodd" clip-rule="evenodd" d="M0.75 2.77075C0.75 1.66618 1.64543 0.770752 2.75 0.770752H9.25C10.3546 0.770752 11.25 1.66618 11.25 2.77075V9.81342C11.25 10.918 10.3546 11.8134 9.25 11.8134H2.75C1.64543 11.8134 0.75 10.918 0.75 9.81342V2.77075ZM6.00005 4.31547C5.00645 4.31547 4.15005 5.17158 4.15005 6.29209C4.15005 7.4126 5.00645 8.26871 6.00005 8.26871C6.99364 8.26871 7.85005 7.4126 7.85005 6.29209C7.85005 5.17158 6.99364 4.31547 6.00005 4.31547ZM2.95005 6.29209C2.95005 4.56654 4.28745 3.11547 6.00005 3.11547C7.71265 3.11547 9.05005 4.56654 9.05005 6.29209C9.05005 8.01764 7.71265 9.46871 6.00005 9.46871C4.28745 9.46871 2.95005 8.01764 2.95005 6.29209ZM9.14995 3.71547C9.53655 3.71547 9.84995 3.38587 9.84995 2.97929C9.84995 2.57271 9.53655 2.24311 9.14995 2.24311C8.76335 2.24311 8.44995 2.57271 8.44995 2.97929C8.44995 3.38587 8.76335 3.71547 9.14995 3.71547Z" fill="white"/>
</svg>
