<svg width="25" height="20" viewBox="0 0 25 20" fill="none" xmlns="http://www.w3.org/2000/svg">
<path d="M24.1071 0.826904H0.892857C0.398996 0.826904 0 1.21143 0 1.68737V18.8967C0 19.3727 0.398996 19.7572 0.892857 19.7572H24.1071C24.601 19.7572 25 19.3727 25 18.8967V1.68737C25 1.21143 24.601 0.826904 24.1071 0.826904ZM21.8527 3.75518L13.0497 10.3566C12.832 10.5206 12.5279 10.5206 12.3103 10.3566L3.50446 3.75518C3.47127 3.73049 3.44692 3.69642 3.43484 3.65772C3.42275 3.61903 3.42353 3.57766 3.43706 3.53941C3.4506 3.50117 3.47621 3.46796 3.51032 3.44445C3.54442 3.42094 3.5853 3.4083 3.62723 3.40831H21.7299C21.7718 3.4083 21.8127 3.42094 21.8468 3.44445C21.8809 3.46796 21.9065 3.50117 21.9201 3.53941C21.9336 3.57766 21.9344 3.61903 21.9223 3.65772C21.9102 3.69642 21.8859 3.73049 21.8527 3.75518Z" fill="white"/>
</svg>
